<svg xmlns="http://www.w3.org/2000/svg" viewBox="0 0 49 56"><defs><style>.cls-1{fill:#c1272d;}</style></defs><title>Door-out</title><g id="Layer_2" data-name="Layer 2"><g id="Layer_1-2" data-name="Layer 1"><path class="cls-1" d="M47.5,52.75a1.75,1.75,0,0,1,0,3.5H2a1.75,1.75,0,0,1,0-3.5H7.25V5.5a1.75,1.75,0,0,1,1.5-1.73L33.26.27l.24,0A1.75,1.75,0,0,1,35.25,2V3.75H37A5.25,5.25,0,0,1,42.25,9V52.75Zm-8.75,0V9A1.75,1.75,0,0,0,37,7.25H35.25v45.5ZM26.5,30c0-1.93-.78-3.5-1.75-3.5S23,28.07,23,30s.78,3.5,1.75,3.5S26.5,31.93,26.5,30Z" transform="translate(-0.25 -0.25)"/></g></g></svg>